<?xml version="1.0" encoding="UTF-8" standalone="no"?>
<svg
   xmlns:dc="http://purl.org/dc/elements/1.1/"
   xmlns:cc="http://creativecommons.org/ns#"
   xmlns:rdf="http://www.w3.org/1999/02/22-rdf-syntax-ns#"
   xmlns:svg="http://www.w3.org/2000/svg"
   xmlns="http://www.w3.org/2000/svg"
   viewBox="0 0 958.28003 261.73334"
   width="450px"
   xml:space="preserve"
   id="svg2"
   version="1.1"><metadata
     id="metadata8"><rdf:RDF><cc:Work
         rdf:about=""><dc:format>image/svg+xml</dc:format><dc:type
           rdf:resource="http://purl.org/dc/dcmitype/StillImage" /></cc:Work></rdf:RDF></metadata><defs
     id="defs6"><clipPath
       id="clipPath20"
       clipPathUnits="userSpaceOnUse"><path
         id="path18"
         d="M 0,0 H 7187 V 1962.98 H 0 Z" /></clipPath></defs><g
     transform="matrix(1.3333333,0,0,-1.3333333,0,261.73333)"
     id="g10"><g
       transform="scale(0.1)"
       id="g12"><g
         id="g14"><g
           clip-path="url(#clipPath20)"
           id="g16"><path
             id="path22"
             style="fill:#4b9ace;fill-opacity:1;fill-rule:nonzero;stroke:none"
             d="M 3826.94,1044.99 3425.13,0 h 288.17 l 72,181.551 h 374.18 L 4227.37,0 h 289.73 l -393.67,1044.99 z m 145.51,-322.951 h 2.73 L 4086.09,389.5 H 3860.2 l 112.25,332.539" /><path
             id="path24"
             style="fill:#d2341c;fill-opacity:1;fill-rule:nonzero;stroke:none"
             d="m 4658.55,0 h 271.648 V 1044.98 H 4658.55 Z" /><path
             id="path26"
             style="fill:#fbc715;fill-opacity:1;fill-rule:nonzero;stroke:none"
             d="m 5172.43,1044.95 h 385.28 c 291.07,0 530.77,-228.661 530.77,-522.509 C 6088.48,228.629 5847.36,0 5557.71,0 H 5172.43 Z M 5444.02,230 h 61.06 c 162.06,0 300.7,88.75 300.7,292.441 0,187.149 -123.37,292.43 -297.95,292.43 h -63.81 V 230" /><path
             id="path28"
             style="fill:#44a833;fill-opacity:1;fill-rule:nonzero;stroke:none"
             d="M 6496.97,1044.98 6095.1,0 h 288.2 l 72.03,181.551 h 374.29 L 6897.51,0 h 289.64 l -393.64,1044.98 z m 145.45,-322.941 h 2.86 L 6756.14,389.5 h -225.87 l 112.15,332.539" /><path
             id="path30"
             style="fill:#120a0a;fill-opacity:1;fill-rule:nonzero;stroke:none"
             d="m 3685.72,1660.95 c -1.96,0 -4.11,-0.35 -6.39,-1.04 -13.95,-4.18 -30.7,-19.68 -53.89,-41.13 -25.51,-23.62 -60.45,-55.96 -108.81,-88.24 -38.4,-25.62 -66.63,-38.08 -86.31,-38.08 -9.58,0 -16.85,2.97 -22.25,9.08 -13.59,15.39 -9.66,46.87 -6.8,69.87 l 0.19,1.52 c 8.22,65.95 5.4,105.39 -32.76,137.93 -13.87,11.81 -32.78,17.8 -56.23,17.8 -40.65,0 -91.29,-18.33 -142.6,-51.63 -21.51,-13.98 -59.36,-44.93 -78.17,-61.44 -59.6,-52.37 -152.04,-140.32 -233.98,-218.27 -108.26,-103.02 -153,-145.12 -159.47,-146.62 -0.67,-0.15 -1.37,-0.23 -2.06,-0.23 -9.37,0 -17.24,13.8 -34.51,44.05 -14.85,26.03 -37.3,65.38 -72.74,116.1 -272.74,390.29 -646.82,432.43 -794.99,432.43 -35.51,0 -57.16,-2.55 -57.92,-2.64 -216.45,-11.57 -367.41,-88.04 -513.4,-161.99 -144.71,-73.3 -281.38,-142.54 -468.759,-142.59 -148.203,0 -350.629,137.78 -601.582,409.44 -8.41,10.09 -17.223,15.21 -26.191,15.21 -14.946,0 -26.6683,-13.96 -29.2464,-19.03 -2.961,-5.8 -56.9844,-128.59 -85.0664,-192.57 -26.4375,-50.92 10.3906,-70.43 26.121,-78.77 1.6797,-0.89 3.1055,-1.65 4.1758,-2.29 115.184,-69.73 215.949,-203.05 332.641,-357.43 C 505.98,1136.73 669.348,920.602 909.273,721.82 1672.75,104.039 2100.01,13.4492 2248.27,3.19141 c 1.49,-0.11329 5.55,-0.64063 8.49,-0.63282 6.59,0.01172 23.49,25.83981 50.75,69.63281 l 9.38,15.0469 c 10.44,16.6917 22.1,35.3127 34.99,55.4607 98.54,154.039 572.22,676.289 771.3,893.681 l 8.42,9.19 c 108.36,118.45 209.98,222.28 299.63,313.89 20.52,20.96 40.23,41.11 59.04,60.42 15.15,15.56 29.5,30.26 43.05,44.14 108.5,111.17 162.95,166.96 162.95,184.85 0,5.51 -1.83,12.08 -10.55,12.08" /><path
             id="path32"
             style="fill:none;stroke:#120a0a;stroke-width:5;stroke-linecap:butt;stroke-linejoin:miter;stroke-miterlimit:4;stroke-dasharray:none;stroke-opacity:1"
             d="m 3685.72,1660.95 c -1.96,0 -4.11,-0.35 -6.39,-1.04 -13.95,-4.18 -30.7,-19.68 -53.89,-41.13 -25.51,-23.62 -60.45,-55.96 -108.81,-88.24 -38.4,-25.62 -66.63,-38.08 -86.31,-38.08 -9.58,0 -16.85,2.97 -22.25,9.08 -13.59,15.39 -9.66,46.87 -6.8,69.87 l 0.19,1.52 c 8.22,65.95 5.4,105.39 -32.76,137.93 -13.87,11.81 -32.78,17.8 -56.23,17.8 -40.65,0 -91.29,-18.33 -142.6,-51.63 -21.51,-13.98 -59.36,-44.93 -78.17,-61.44 -59.6,-52.37 -152.04,-140.32 -233.98,-218.27 -108.26,-103.02 -153,-145.12 -159.47,-146.62 -0.67,-0.15 -1.37,-0.23 -2.06,-0.23 -9.37,0 -17.24,13.8 -34.51,44.05 -14.85,26.03 -37.3,65.38 -72.74,116.1 -272.74,390.29 -646.82,432.43 -794.99,432.43 -35.51,0 -57.16,-2.55 -57.92,-2.64 -216.45,-11.57 -367.41,-88.04 -513.4,-161.99 -144.71,-73.3 -281.38,-142.54 -468.759,-142.59 -148.203,0 -350.629,137.78 -601.582,409.44 -8.41,10.09 -17.223,15.21 -26.191,15.21 -14.946,0 -26.6683,-13.96 -29.2464,-19.03 -2.961,-5.8 -56.9844,-128.59 -85.0664,-192.57 -26.4375,-50.92 10.3906,-70.43 26.121,-78.77 1.6797,-0.89 3.1055,-1.65 4.1758,-2.29 115.184,-69.73 215.949,-203.05 332.641,-357.43 C 505.98,1136.73 669.348,920.602 909.273,721.82 1672.75,104.039 2100.01,13.4492 2248.27,3.19141 c 1.49,-0.11329 5.55,-0.64063 8.49,-0.63282 6.59,0.01172 23.49,25.83981 50.75,69.63281 l 9.38,15.0469 c 10.44,16.6917 22.1,35.3127 34.99,55.4607 98.54,154.039 572.22,676.289 771.3,893.681 l 8.42,9.19 c 108.36,118.45 209.98,222.28 299.63,313.89 20.52,20.96 40.23,41.11 59.04,60.42 15.15,15.56 29.5,30.26 43.05,44.14 108.5,111.17 162.95,166.96 162.95,184.85 0,5.51 -1.83,12.08 -10.55,12.08 z" /><path
             id="path34"
             style="fill:#d2341c;fill-opacity:1;fill-rule:nonzero;stroke:none"
             d="m 354.918,1616.73 c 0,0 272.07,-287.17 610.75,-201.03 338.712,86.13 825.832,421.79 1216.352,106.48 215.37,-174.34 257.83,-263.44 369.93,-420.38 56.06,-78.49 33.62,-89.68 184.97,67.25 168.15,162.54 526.89,543.72 594.17,420.4 50.42,-84.1 -58.73,-214.54 83.49,-143.41 l 119.17,57.07 c 0,0 -199.69,-154.56 -331.58,-249.99 -95.2,-68.87 -207.41,-179.36 -313.89,-151.32 -123.34,39.23 -214.39,-113.695 -305.83,-248.73 -109.85,-162.218 -174.78,-94.679 -237.89,-31.531 -63.16,63.152 -246.62,308.281 -667.03,269.041 -361.67,-40.14 -594.59,-2.96 -812.764,123.31 -218.145,126.36 -458.168,351.05 -509.848,402.84" /><path
             id="path36"
             style="fill:none;stroke:#120a0a;stroke-width:3.38000011;stroke-linecap:round;stroke-linejoin:round;stroke-miterlimit:4;stroke-dasharray:none;stroke-opacity:1"
             d="m 354.918,1616.73 c 0,0 272.07,-287.17 610.75,-201.03 338.712,86.13 825.832,421.79 1216.352,106.48 215.37,-174.34 257.83,-263.44 369.93,-420.38 56.06,-78.49 33.62,-89.68 184.97,67.25 168.15,162.54 526.89,543.72 594.17,420.4 50.42,-84.1 -58.73,-214.54 83.49,-143.41 l 119.17,57.07 c 0,0 -199.69,-154.56 -331.58,-249.99 -95.2,-68.87 -207.41,-179.36 -313.89,-151.32 -123.34,39.23 -214.39,-113.695 -305.83,-248.73 -109.85,-162.218 -174.78,-94.679 -237.89,-31.531 -63.16,63.152 -246.62,308.281 -667.03,269.041 -361.67,-40.14 -594.59,-2.96 -812.764,123.31 -218.145,126.36 -458.168,351.05 -509.848,402.84" /><path
             id="path38"
             style="fill:#d2341c;fill-opacity:1;fill-rule:nonzero;stroke:none"
             d="m 458.238,1404.19 c 0,0 399.946,-487.952 916.602,-464.96 516.72,22.942 576.89,16.508 835.18,-207.39 173.79,-140.121 214.28,-242.621 397.97,61.672 100.24,151.437 179.37,291.468 291.49,252.228 145.74,-50.447 358.68,206.8 358.68,206.8 -11.75,-22.73 -716.86,-690.688 -941.63,-1019.56 -56.06,-78.468 -59.42,-62.199 -151.35,-39.23 -91.85,22.969 -958.49,297.059 -1706.942,1210.44" /><path
             id="path40"
             style="fill:none;stroke:#120a0a;stroke-width:3.38000011;stroke-linecap:round;stroke-linejoin:round;stroke-miterlimit:4;stroke-dasharray:none;stroke-opacity:1"
             d="m 458.238,1404.19 c 0,0 399.946,-487.952 916.602,-464.96 516.72,22.942 576.89,16.508 835.18,-207.39 173.79,-140.121 214.28,-242.621 397.97,61.672 100.24,151.437 179.37,291.468 291.49,252.228 145.74,-50.447 358.68,206.8 358.68,206.8 -11.75,-22.73 -716.86,-690.688 -941.63,-1019.56 -56.06,-78.468 -59.42,-62.199 -151.35,-39.23 -91.85,22.969 -958.49,297.059 -1706.942,1210.44" /></g></g></g></g></svg>