<?xml version="1.0" encoding="UTF-8" standalone="no"?>
<svg width="250" viewBox="0 0 74 44" version="1.1" xmlns="http://www.w3.org/2000/svg" xmlns:xlink="http://www.w3.org/1999/xlink" xmlns:sketch="http://www.bohemiancoding.com/sketch/ns">
    <!-- Generator: Sketch 3.3.3 (12081) - http://www.bohemiancoding.com/sketch -->
    <title>Costa_logo</title>
    <desc>Created with Sketch.</desc>
    <defs>
        <rect id="path-1" x="0.0916751368" y="0.0944355088" width="73.2017963" height="43.1517414"></rect>
        <rect id="path-3" x="0.0916751368" y="0.0944355088" width="73.2017963" height="43.1517414"></rect>
        <rect id="path-5" x="0.0916751368" y="0.0944355088" width="73.2017963" height="43.1517414"></rect>
        <path id="path-7" d="M0.109632453,3.76533017 L0.109632453,6.31248158 C0.846810663,4.36465992 2.46860273,3.76533017 5.49103339,3.76533017 C7.11282545,3.76533017 8.73461751,4.36465992 9.91410265,5.26365453 L9.91410265,2.41683826 C9.91410265,2.04225717 8.66089969,0.0195192911 4.97500864,0.0195192911 C2.61603837,0.0944355088 0.109632453,1.29309499 0.109632453,3.76533017"></path>
        <linearGradient x1="-0.397969323%" y1="49.0577343%" x2="99.3604749%" y2="49.0577343%" id="linearGradient-9">
            <stop stop-color="#1A3A68" offset="0%"></stop>
            <stop stop-color="#1B3B69" offset="20%"></stop>
            <stop stop-color="#3A5781" offset="21.38%"></stop>
            <stop stop-color="#54729A" offset="22.78%"></stop>
            <stop stop-color="#6A8CB2" offset="24.2%"></stop>
            <stop stop-color="#7BA3C7" offset="25.63%"></stop>
            <stop stop-color="#89B5D9" offset="27.06%"></stop>
            <stop stop-color="#92C2E6" offset="28.51%"></stop>
            <stop stop-color="#96C7EB" offset="30%"></stop>
            <stop stop-color="#7499BE" offset="39.1%"></stop>
            <stop stop-color="#59779E" offset="49.13%"></stop>
            <stop stop-color="#425F88" offset="59.29%"></stop>
            <stop stop-color="#314F79" offset="69.46%"></stop>
            <stop stop-color="#244370" offset="79.62%"></stop>
            <stop stop-color="#1C3D6A" offset="89.79%"></stop>
            <stop stop-color="#1A3A68" offset="100%"></stop>
        </linearGradient>
        <path id="path-10" d="M0.368589105,2.69698384 L0.368589105,16.181903 L0.368589105,16.181903 L0.368589105,16.181903 C1.91666335,16.2568192 3.61217323,16.181903 5.30768311,15.8822381 C7.07691082,15.5076571 8.69870288,14.9832435 10.0993415,14.3089976 L10.0993415,1.72307301 C8.91985634,0.824078394 7.29806428,0.224748653 5.67627222,0.224748653 C2.72755938,0.224748653 1.03204949,0.824078394 0.368589105,2.69698384"></path>
        <linearGradient x1="-0.397969323%" y1="49.716456%" x2="99.3604749%" y2="49.716456%" id="linearGradient-12">
            <stop stop-color="#FBC311" offset="0%"></stop>
            <stop stop-color="#FBC311" offset="20%"></stop>
            <stop stop-color="#FED76A" offset="23.78%"></stop>
            <stop stop-color="#FFE89C" offset="26.98%"></stop>
            <stop stop-color="#FFEFB0" offset="28.5%"></stop>
            <stop stop-color="#FFE89C" offset="41.27%"></stop>
            <stop stop-color="#FED76A" offset="68.12%"></stop>
            <stop stop-color="#FBC311" offset="100%"></stop>
        </linearGradient>
        <path id="path-13" d="M0.442306926,3.29631358 L0.442306926,5.46888389 C1.03204949,3.89564332 2.35897027,3.3712298 4.71794055,3.3712298 L4.71794055,0.224748653 L4.49678708,0.224748653 C2.58012374,0.149832435 0.442306926,1.19865948 0.442306926,3.29631358"></path>
        <linearGradient x1="0.77045569%" y1="50.7889776%" x2="100.95806%" y2="50.7889776%" id="linearGradient-15">
            <stop stop-color="#1A3A68" offset="0%"></stop>
            <stop stop-color="#1B3B69" offset="35%"></stop>
            <stop stop-color="#3A5781" offset="37.42%"></stop>
            <stop stop-color="#54729A" offset="39.86%"></stop>
            <stop stop-color="#6A8CB2" offset="42.35%"></stop>
            <stop stop-color="#7BA3C7" offset="44.85%"></stop>
            <stop stop-color="#89B5D9" offset="47.36%"></stop>
            <stop stop-color="#92C2E6" offset="49.9%"></stop>
            <stop stop-color="#96C7EB" offset="52.5%"></stop>
            <stop stop-color="#7EAED6" offset="70.14%"></stop>
            <stop stop-color="#5C8DBB" offset="100%"></stop>
        </linearGradient>
        <path id="path-16" d="M0.442306926,2.47223518 L0.442306926,11.4621813 L0.442306926,11.4621813 L0.442306926,11.4621813 C1.62179206,11.9865948 3.09614848,12.2862597 4.71794055,12.4360921 L4.71794055,0.299664871 C2.35897027,0.374581088 1.03204949,0.898994612 0.442306926,2.47223518"></path>
        <linearGradient x1="0.77045569%" y1="50.2397988%" x2="100.95806%" y2="50.2397988%" id="linearGradient-18">
            <stop stop-color="#FBC311" offset="0%"></stop>
            <stop stop-color="#FBC311" offset="35%"></stop>
            <stop stop-color="#FED76A" offset="40.56%"></stop>
            <stop stop-color="#FFE89C" offset="45.26%"></stop>
            <stop stop-color="#FFEFB0" offset="47.5%"></stop>
            <stop stop-color="#FFE691" offset="71.34%"></stop>
            <stop stop-color="#FFDC66" offset="100%"></stop>
        </linearGradient>
        <path id="path-19" d="M0.589742568,2.5471514 L0.589742568,4.27022441 C0.958331673,3.14648114 1.91666335,2.69698384 3.46473759,2.5471514 L3.46473759,0 C1.99038117,0.149832435 0.589742568,0.97391083 0.589742568,2.5471514"></path>
        <linearGradient x1="1.72524359%" y1="50.5565807%" x2="101.186782%" y2="50.5565807%" id="linearGradient-21">
            <stop stop-color="#1A3A68" offset="0%"></stop>
            <stop stop-color="#1B3B69" offset="35%"></stop>
            <stop stop-color="#3A5781" offset="38.11%"></stop>
            <stop stop-color="#54729A" offset="41.25%"></stop>
            <stop stop-color="#6A8CB2" offset="44.45%"></stop>
            <stop stop-color="#7BA3C7" offset="47.66%"></stop>
            <stop stop-color="#89B5D9" offset="50.89%"></stop>
            <stop stop-color="#92C2E6" offset="54.15%"></stop>
            <stop stop-color="#96C7EB" offset="57.5%"></stop>
            <stop stop-color="#7EAED6" offset="73.29%"></stop>
            <stop stop-color="#5C8DBB" offset="100%"></stop>
        </linearGradient>
        <path d="M3.46473759,7.71637042 C3.39101977,7.71637042 3.39101977,7.71637042 3.46473759,7.71637042 M0.589742568,2.02273788 L0.589742568,4.79463793 C0.884613852,6.06821363 1.91666335,7.04212446 3.46473759,7.71637042 L3.46473759,7.71637042 L3.46473759,0.299664871 C1.84294553,0.449497306 0.958331673,0.898994612 0.589742568,2.02273788" id="path-22"></path>
        <linearGradient x1="-0.350193846%" y1="50.5597184%" x2="99.1161621%" y2="50.5597184%" id="linearGradient-24">
            <stop stop-color="#FBC311" offset="0%"></stop>
            <stop stop-color="#FBC311" offset="35%"></stop>
            <stop stop-color="#FED76A" offset="42.78%"></stop>
            <stop stop-color="#FFE89C" offset="49.37%"></stop>
            <stop stop-color="#FFEFB0" offset="52.5%"></stop>
            <stop stop-color="#FFE691" offset="74.07%"></stop>
            <stop stop-color="#FFDC66" offset="100%"></stop>
        </linearGradient>
        <rect id="path-25" x="0.0916751368" y="0.0944355088" width="73.2017963" height="43.2266576"></rect>
        <rect id="path-27" x="0.0916751368" y="0.0944355088" width="73.2017963" height="43.2266576"></rect>
    </defs>
    <g id="Master-Layout" stroke="none" stroke-width="1" fill="none" fill-rule="evenodd" sketch:type="MSPage">
        <g id="1024_landing_ships" sketch:type="MSArtboardGroup" transform="translate(-880.000000, -351.000000)">
            <g id="Content" sketch:type="MSLayerGroup" transform="translate(43.000000, 297.000000)">
                <g id="Card" transform="translate(0.000000, 36.000000)">
                    <g id="Costa_logo" transform="translate(837.000000, 18.000000)">
                        <g id="LOGO-Copy-3" transform="translate(0.081909, 0.072624)">
                            <g id="Group">
                                <g id="Clipped">
                                    <mask id="mask-2" sketch:name="SVGID_1_" fill="white">
                                        <use xlink:href="#path-1"></use>
                                    </mask>
                                    <g id="SVGID_1_"></g>
                                    <path d="M67.1011744,37.0281308 C66.9537388,37.1779633 65.7005358,39.6501984 63.7101547,39.6501984 C62.6781052,39.6501984 62.1620804,38.5264552 62.0883626,37.9271254 C61.7934913,36.5786335 61.940927,34.5558956 62.1620804,33.3572362 C62.3832339,32.4582415 62.9729765,29.4615928 65.4793824,29.4615928 L67.1748923,29.4615928 L67.1011744,37.0281308 L67.1011744,37.0281308 Z M57.2967042,27.2141063 L53.3896597,27.2141063 L53.3896597,22.644217 C53.3896597,22.644217 53.3896597,22.5693008 53.3159419,22.5693008 C53.2422241,22.5693008 53.1685063,22.644217 53.1685063,22.644217 C52.7261993,23.9927089 48.3031301,28.7124307 46.9024915,29.3866766 C46.9024915,29.3866766 46.8287737,29.4615928 46.8287737,29.5365091 C46.8287737,29.6114253 46.9024915,29.6114253 46.9024915,29.6114253 L49.2614618,29.6114253 L49.2614618,38.2267903 C49.2614618,39.500366 49.3351796,40.7739417 49.99864,41.7478525 C50.809536,42.8715958 52.3576102,43.2461769 53.3896597,43.2461769 C55.5274765,43.2461769 57.2229864,41.9726012 58.4024716,40.9237741 C58.9922141,42.1224336 60.0979814,43.2461769 62.2357983,43.2461769 C65.5531002,43.2461769 67.0274566,40.0996957 67.2486101,39.8749471 C67.2486101,39.8749471 67.4697636,43.0214282 69.9761695,43.2461769 C71.5242437,43.3960093 73.2934714,42.0475174 73.4409071,40.5491931 C73.4409071,40.5491931 73.4409071,40.3993606 73.3671892,40.5491931 C73.2197536,40.6990255 72.7037288,40.9237741 72.3351397,40.9237741 C71.5979615,40.9237741 71.3030902,39.7251147 71.3030902,39.500366 C71.2293724,39.2756174 71.2293724,38.9759525 71.2293724,38.7512038 L71.2293724,27.3639387 L67.5434814,27.3639387 C66.2165606,27.3639387 63.4152834,27.1391901 60.3928527,30.2856712 C58.2550359,32.5331578 57.5178577,36.5786335 58.1076003,39.500366 C58.1076003,39.5752822 58.1076003,39.6501984 58.1813181,39.7251147 C57.5915755,40.174612 56.8543973,40.6241093 55.8960656,40.6241093 C55.2326053,40.6241093 54.3479914,40.4742768 53.9794023,39.4254498 C53.7582488,38.9759525 53.7582488,38.3766227 53.7582488,37.1779633 L53.7582488,29.6863415 L57.6652934,29.6863415 L57.6652934,27.2141063 L57.2967042,27.2141063 Z" id="Shape" fill="#0070B9" sketch:type="MSShapeGroup" mask="url(#mask-2)"></path>
                                </g>
                                <g id="Clipped">
                                    <mask id="mask-4" sketch:name="SVGID_1_" fill="white">
                                        <use xlink:href="#path-3"></use>
                                    </mask>
                                    <g id="SVGID_1_"></g>
                                    <path d="M27.6621402,40.0247795 C27.0723976,40.6241093 26.3352194,40.9237741 25.5243234,40.9237741 C24.7134274,40.9237741 23.9762491,40.6241093 23.3865066,40.0247795 C22.4281749,39.0508687 21.8384323,37.2528795 21.8384323,35.0803092 C21.8384323,31.5592469 23.3127888,29.2368442 25.5243234,29.2368442 C26.3352194,29.2368442 27.0723976,29.5365091 27.6621402,30.1358388 C28.6204719,31.1097496 29.1364966,32.8328226 29.1364966,35.0053929 C29.2102144,37.3277957 28.6941897,39.0508687 27.6621402,40.0247795 L27.6621402,40.0247795 Z M19.6268977,21.2957251 L19.2583086,21.0709765 C18.0051056,20.3218143 16.1621601,19.872317 13.729472,19.7974008 C11.5916552,19.7224845 8.7166602,19.872317 5.54679389,21.8950549 C3.99871965,22.8689657 2.74551669,24.1425414 1.86090284,25.5659495 C0.828853347,27.2141063 0.239110779,29.2368442 0.0916751368,31.4843307 C-0.129478326,36.9532146 2.45064541,41.1485228 6.94743249,42.7217634 C8.34807109,43.1712607 9.82242751,43.3960093 11.665373,43.2461769 C14.171779,43.0963445 16.5307492,42.0475174 18.668566,40.2495282 C18.8897195,40.5491931 19.110873,40.8488579 19.3320264,41.0736066 C20.8063828,42.4970147 22.9441997,43.3210931 25.3768877,43.3210931 C27.6621402,43.3210931 29.7262392,42.5719309 31.1268778,41.223439 C32.674952,39.8000309 33.4858481,37.7023768 33.4858481,35.1552254 C33.4858481,32.7579064 32.7486698,30.8100848 31.3480312,29.3866766 C29.8736748,27.8883523 27.735858,27.1391901 25.3031699,27.1391901 C23.0916353,27.1391901 21.0275363,27.9632685 19.5531799,29.3866766 C18.0051056,30.885001 17.1204918,32.9826551 17.1204918,35.379974 C17.1204918,36.5037173 17.2679274,37.4776281 17.6365165,38.451539 C16.3833136,39.6501984 14.8352393,40.3244444 12.7711404,40.4742768 C10.7070414,40.6241093 9.01153148,40.0996957 7.6846107,38.82612 C5.98910082,37.1779633 5.10448697,34.4060632 5.17820479,31.2595821 C5.25192261,28.7124307 6.2839721,22.8689657 13.8031898,23.0937143 C14.3929324,23.0937143 15.8672888,23.1686306 17.3416453,23.9177927 L17.7102344,24.0676252 L19.6268977,21.2957251 L19.6268977,21.2957251 Z" id="Shape" fill="#0070B9" sketch:type="MSShapeGroup" mask="url(#mask-4)"></path>
                                </g>
                                <g id="Clipped">
                                    <mask id="mask-6" sketch:name="SVGID_1_" fill="white">
                                        <use xlink:href="#path-5"></use>
                                    </mask>
                                    <g id="SVGID_1_"></g>
                                    <path d="M34.8864867,38.451539 L35.0339223,38.451539 C35.0339223,38.451539 35.1076401,38.5264552 35.1076401,38.6013714 C35.4762292,39.1257849 36.5082787,40.6990255 38.867249,40.6990255 C40.1941698,40.6990255 41.6685262,40.2495282 41.742244,38.7512038 C41.8159618,37.4776281 40.3416054,36.728466 39.2358381,36.1291362 L37.8351995,35.4548903 L37.8351995,35.4548903 L37.8351995,35.4548903 C36.8768678,34.9304767 35.1813579,33.9565659 35.2550758,31.5592469 C35.3287936,28.7873469 37.7614817,27.2141063 41.5948084,27.2890225 L45.5018529,27.2890225 L45.5018529,29.6114253 L41.8896797,29.6114253 C41.0787836,29.6114253 40.4890411,29.7612577 40.120452,30.1358388 C39.8992985,30.3605874 39.7518628,30.6602523 39.7518628,30.9599172 C39.7518628,32.0836605 40.931348,32.6829902 41.9633975,33.1324875 L43.2166004,33.7318172 C45.3544172,34.7057281 46.3864667,36.2040524 46.3127489,38.0769579 C46.2390311,39.500366 45.6492885,40.8488579 44.4698034,41.7478525 C43.5851895,42.4220985 41.9633975,43.2461769 39.3095559,43.1712607 C38.7198134,43.1712607 36.8768678,43.0214282 35.7711005,41.6729363 C35.1813579,40.9237741 34.8864867,39.9498633 34.739051,38.6013714 C34.8864867,38.6762876 34.8864867,38.5264552 34.8864867,38.451539" id="Shape" fill="#0070B9" sketch:type="MSShapeGroup" mask="url(#mask-6)"></path>
                                </g>
                            </g>
                            <g id="Clipped" transform="translate(34.039676, 0.000000)">
                                <mask id="mask-8" sketch:name="SVGID_3_" fill="white">
                                    <use xlink:href="#path-7"></use>
                                </mask>
                                <g id="SVGID_3_"></g>
                                <rect id="Rectangle-path" fill="url(#linearGradient-9)" sketch:type="MSShapeGroup" mask="url(#mask-8)" x="0.109632453" y="0.0944355088" width="9.8044702" height="6.29296228"></rect>
                            </g>
                            <g id="Clipped" transform="translate(33.780719, 3.615498)">
                                <mask id="mask-11" sketch:name="SVGID_6_" fill="white">
                                    <use xlink:href="#path-10"></use>
                                </mask>
                                <g id="SVGID_6_"></g>
                                <rect id="Rectangle-path" fill="url(#linearGradient-12)" sketch:type="MSShapeGroup" mask="url(#mask-11)" x="0.368589105" y="0.224748653" width="9.8044702" height="16.1069868"></rect>
                            </g>
                            <g id="Clipped" transform="translate(29.357650, 4.364660)">
                                <mask id="mask-14" sketch:name="SVGID_9_" fill="white">
                                    <use xlink:href="#path-13"></use>
                                </mask>
                                <g id="SVGID_9_"></g>
                                <rect id="Rectangle-path" fill="url(#linearGradient-15)" sketch:type="MSShapeGroup" mask="url(#mask-14)" x="0.442306926" y="0.149832435" width="4.27563362" height="5.24413524"></rect>
                            </g>
                            <g id="Clipped" transform="translate(29.357650, 7.361309)">
                                <mask id="mask-17" sketch:name="SVGID_12_" fill="white">
                                    <use xlink:href="#path-16"></use>
                                </mask>
                                <g id="SVGID_12_"></g>
                                <rect id="Rectangle-path" fill="url(#linearGradient-18)" sketch:type="MSShapeGroup" mask="url(#mask-17)" x="0.442306926" y="0.299664871" width="4.27563362" height="12.1364273"></rect>
                            </g>
                            <g id="Clipped" transform="translate(26.408937, 8.859633)">
                                <mask id="mask-20" sketch:name="SVGID_15_" fill="white">
                                    <use xlink:href="#path-19"></use>
                                </mask>
                                <g id="SVGID_15_"></g>
                                <rect id="Rectangle-path" fill="url(#linearGradient-21)" sketch:type="MSShapeGroup" mask="url(#mask-20)" x="0.516024747" y="0" width="2.87499502" height="4.27022441"></rect>
                            </g>
                            <g id="Clipped" transform="translate(26.408937, 11.107120)">
                                <mask id="mask-23" sketch:name="SVGID_18_" fill="white">
                                    <use xlink:href="#path-22"></use>
                                </mask>
                                <g id="SVGID_18_"></g>
                                <rect id="Rectangle-path" fill="url(#linearGradient-24)" sketch:type="MSShapeGroup" mask="url(#mask-23)" x="0.589742568" y="0.299664871" width="2.87499502" height="7.41670555"></rect>
                            </g>
                            <g id="Group">
                                <g id="Clipped" transform="translate(0.000000, 0.000000)">
                                    <mask id="mask-26" sketch:name="SVGID_21_" fill="white">
                                        <use xlink:href="#path-25"></use>
                                    </mask>
                                    <g id="SVGID_21_"></g>
                                    <path d="M43.8800608,5.26365453 L43.8800608,7.88572215 C44.5435212,8.03555458 45.2069816,8.33521945 45.6492885,8.55996811 L50.2197934,6.61214645 C48.4505657,5.86298427 46.3127489,5.41348696 43.8800608,5.26365453" id="Shape" fill="#0070B9" sketch:type="MSShapeGroup" mask="url(#mask-26)"></path>
                                </g>
                                <g id="Clipped" transform="translate(0.000000, 0.000000)">
                                    <mask id="mask-28" sketch:name="SVGID_21_" fill="white">
                                        <use xlink:href="#path-27"></use>
                                    </mask>
                                    <g id="SVGID_21_"></g>
                                    <path d="M47.2710806,15.4522601 C46.4601846,16.3512547 45.2806994,17.1753331 43.8800608,17.9244953 L43.8800608,17.9244953 C42.4794222,18.5987413 40.8576302,19.198071 39.0884025,19.4977359 C37.3928926,19.7974008 35.6973827,19.9472332 34.1493084,19.872317 L34.1493084,19.872317 L34.1493084,19.872317 C32.5275164,19.7974008 31.05316,19.4228197 29.8736748,18.8984061 L29.8736748,18.8984061 C28.3256006,18.2241602 27.2935511,17.2502494 26.9986798,15.9017574 L26.9986798,13.1298574 L26.9986798,11.4067844 C26.9986798,9.83354381 28.3993184,9.00946541 29.8736748,8.85963298 L29.8736748,7.81080593 C23.9025313,10.3579573 20.2903581,14.2536006 21.1012541,17.9994115 L21.1012541,17.9994115 C22.2070214,22.8689657 30.5371352,25.1913684 39.9730163,23.318463 C44.9858281,22.3445522 49.7037687,20.2468981 52.6524815,17.1753331 L47.2710806,15.4522601 L47.2710806,15.4522601 Z" id="Shape" fill="#0070B9" sketch:type="MSShapeGroup" mask="url(#mask-28)"></path>
                                </g>
                            </g>
                        </g>
                    </g>
                </g>
            </g>
        </g>
    </g>
</svg>