<?xml version="1.0" encoding="utf-8"?>
<svg xmlns="http://www.w3.org/2000/svg" version="1.1" width="454px" height="95.944px" viewBox="0 0 454 95.944">
  <path d="M33.576,75.742c-8.785,0-13.336-4.712-13.576-14.215c0-0.479,0.16-0.799,0.639-0.879l6.708-1.118 c0.559-0.079,0.878,0.239,0.878,0.719c0.24,5.75,1.917,7.986,5.59,7.986c3.434,0,5.111-1.837,5.111-7.747 c0-5.829-1.118-7.746-5.351-9.423l-3.274-1.278c-7.507-2.954-9.743-6.867-9.743-15.333C20.559,25.11,24.792,20,33.736,20 c8.945,0,12.858,4.791,13.337,13.256c0,0.479-0.24,0.719-0.719,0.879l-6.389,0.959c-0.479,0.079-0.878-0.16-0.878-0.64 c-0.16-4.472-1.598-6.948-5.111-6.948c-3.354,0-4.951,2.077-4.951,6.549c0,5.031,0.958,6.549,5.271,8.227l3.274,1.277 c7.107,2.795,9.903,6.628,9.903,15.893C47.472,70.152,43.878,75.742,33.576,75.742z"/>
  <path d="M50.028,21.517c0-0.479,0.319-0.798,0.798-0.798h6.948c0.479,0,0.799,0.318,0.799,0.798v52.708 c0,0.479-0.32,0.799-0.799,0.799h-6.948c-0.479,0-0.798-0.319-0.798-0.799V21.517z"/>
  <path d="M63.046,21.517c0-0.479,0.319-0.798,0.798-0.798h8.465c0.639,0,0.958,0.239,1.118,0.798L83.49,59.051h0.399V21.517 c0-0.479,0.32-0.798,0.799-0.798h5.91c0.479,0,0.798,0.318,0.798,0.798v52.708c0,0.479-0.319,0.799-0.798,0.799h-7.906 c-0.639,0-0.958-0.239-1.118-0.799L71.032,36.69h-0.479v37.534c0,0.479-0.32,0.799-0.799,0.799h-5.91 c-0.479,0-0.798-0.319-0.798-0.799V21.517z"/>
  <path d="M95.87,21.517c0-0.479,0.319-0.798,0.798-0.798h8.465c0.639,0,0.958,0.239,1.118,0.798l10.062,37.534h0.399V21.517 c0-0.479,0.32-0.798,0.799-0.798h5.91c0.479,0,0.798,0.318,0.798,0.798v52.708c0,0.479-0.319,0.799-0.798,0.799h-7.906 c-0.639,0-0.958-0.239-1.118-0.799L103.855,36.69h-0.479v37.534c0,0.479-0.319,0.799-0.799,0.799h-5.91 c-0.479,0-0.798-0.319-0.798-0.799V21.517z"/>
  <path d="M128.693,21.517c0-0.479,0.32-0.798,0.799-0.798h22.281c0.479,0,0.799,0.318,0.799,0.798v6.149 c0,0.479-0.319,0.799-0.799,0.799h-14.055c-0.319,0-0.479,0.16-0.479,0.479v14.294c0,0.32,0.16,0.479,0.479,0.479h12.139 c0.479,0,0.799,0.319,0.799,0.799v6.149c0,0.479-0.319,0.799-0.799,0.799h-12.139c-0.319,0-0.479,0.16-0.479,0.479v14.854 c0,0.319,0.16,0.479,0.479,0.479h14.055c0.479,0,0.799,0.318,0.799,0.799v6.148c0,0.479-0.319,0.799-0.799,0.799h-22.281 c-0.479,0-0.799-0.319-0.799-0.799V21.517z"/>
  <path d="M177.329,75.023c-0.479,0-0.719-0.16-0.878-0.559l-6.628-21.643h-1.358h-2.716c-0.318,0-0.479,0.16-0.479,0.479v20.923 c0,0.479-0.319,0.799-0.799,0.799h-6.948c-0.479,0-0.798-0.319-0.798-0.799V21.517c0-0.479,0.319-0.798,0.798-0.798h10.941 c9.663,0,15.493,4.232,15.493,16.131c0,7.108-2.396,11.58-6.469,13.896l7.666,23.479c0.16,0.399,0,0.799-0.398,0.799H177.329z M175.413,36.85c0-6.389-2.076-8.385-6.868-8.385h-2.796c-0.318,0-0.479,0.16-0.479,0.479v15.812c0,0.32,0.16,0.479,0.479,0.479 h2.796C173.337,45.235,175.413,43.318,175.413,36.85z"/>
  <path d="M200.968,75.742c-8.783,0-13.336-4.712-13.575-14.215c0-0.479,0.159-0.799,0.639-0.879l6.708-1.118 c0.559-0.079,0.879,0.239,0.879,0.719c0.239,5.75,1.916,7.986,5.59,7.986c3.434,0,5.111-1.837,5.111-7.747 c0-5.829-1.118-7.746-5.352-9.423l-3.273-1.278c-7.507-2.954-9.743-6.867-9.743-15.333c0-9.344,4.233-14.454,13.177-14.454 c8.945,0,12.857,4.791,13.337,13.256c0,0.479-0.239,0.719-0.719,0.879l-6.389,0.959c-0.479,0.079-0.878-0.16-0.878-0.64 c-0.16-4.472-1.598-6.948-5.111-6.948c-3.354,0-4.951,2.077-4.951,6.549c0,5.031,0.958,6.549,5.27,8.227l3.275,1.277 c7.107,2.795,9.902,6.628,9.902,15.893C214.864,70.152,211.271,75.742,200.968,75.742z"/>
  <path d="M218.06,47.871c0-15.094,0.319-17.33,1.038-19.566c1.677-5.19,5.67-8.305,12.298-8.305c7.748,0,12.619,3.992,13.098,13.017 c0.08,0.479-0.08,0.879-0.559,0.958l-6.469,1.119c-0.479,0.079-0.879-0.16-0.879-0.719c-0.24-4.633-1.836-6.629-4.951-6.629 c-2.396,0-3.674,1.038-4.312,3.035c-0.399,1.277-0.559,2.396-0.559,17.09s0.159,15.812,0.559,17.09 c0.639,1.996,1.916,3.035,4.312,3.035c3.115,0,4.711-1.997,4.951-6.629c0-0.559,0.4-0.799,0.879-0.719l6.469,1.118 c0.479,0.08,0.639,0.479,0.559,0.958c-0.479,9.024-5.35,13.018-13.098,13.018c-6.628,0-10.621-3.114-12.298-8.306 C218.379,65.201,218.06,62.965,218.06,47.871z"/>
  <path d="M249.126,21.517c0-0.479,0.32-0.798,0.799-0.798h6.947c0.48,0,0.799,0.318,0.799,0.798V42.92 c0,0.318,0.16,0.479,0.479,0.479h9.186c0.318,0,0.479-0.16,0.479-0.479V21.517c0-0.479,0.318-0.798,0.799-0.798h6.947 c0.479,0,0.799,0.318,0.799,0.798v52.708c0,0.479-0.32,0.799-0.799,0.799h-6.947c-0.48,0-0.799-0.319-0.799-0.799v-22.6 c0-0.32-0.16-0.479-0.479-0.479h-9.186c-0.318,0-0.479,0.159-0.479,0.479v22.6c0,0.479-0.318,0.799-0.799,0.799h-6.947 c-0.479,0-0.799-0.319-0.799-0.799V21.517z"/>
  <path d="M301.435,75.023c-0.479,0-0.717-0.16-0.879-0.559l-6.627-21.643h-1.357h-2.715c-0.32,0-0.48,0.16-0.48,0.479v20.923 c0,0.479-0.318,0.799-0.799,0.799h-6.947c-0.48,0-0.799-0.319-0.799-0.799V21.517c0-0.479,0.318-0.798,0.799-0.798h10.941 c9.662,0,15.492,4.232,15.492,16.131c0,7.108-2.395,11.58-6.469,13.896l7.668,23.479c0.158,0.399,0,0.799-0.4,0.799H301.435z M299.519,36.85c0-6.389-2.076-8.385-6.869-8.385h-2.793c-0.32,0-0.48,0.16-0.48,0.479v15.812c0,0.32,0.16,0.479,0.48,0.479h2.793 C297.442,45.235,299.519,43.318,299.519,36.85z"/>
  <path d="M323.317,21.517c0.16-0.479,0.4-0.798,0.879-0.798h6.709c0.479,0,0.799,0.318,0.877,0.798l11.5,52.708 c0.08,0.479-0.158,0.799-0.639,0.799h-6.787c-0.561,0-0.799-0.319-0.879-0.799l-2.156-10.94H322.04l-2.156,10.94 c-0.08,0.479-0.32,0.799-0.879,0.799h-6.787c-0.48,0-0.719-0.319-0.641-0.799L323.317,21.517z M331.464,56.097l-3.834-20.205h-0.24 l-3.992,20.205H331.464z"/>
  <path d="M346.079,21.517c0-0.479,0.318-0.798,0.799-0.798h12.537c7.107,0,11.262,2.875,13.178,8.704 c0.959,2.955,1.357,6.629,1.357,18.448s-0.398,15.493-1.357,18.447c-1.916,5.83-6.07,8.705-13.178,8.705h-12.537 c-0.48,0-0.799-0.319-0.799-0.799V21.517z M355.103,67.277h3.434c3.035,0,4.793-1.198,5.75-3.913 c0.639-1.997,0.959-4.632,0.959-15.493s-0.32-13.496-0.959-15.493c-0.957-2.716-2.715-3.913-5.75-3.913h-3.434 c-0.318,0-0.479,0.16-0.479,0.479v37.854C354.624,67.117,354.784,67.277,355.103,67.277z"/>
  <path d="M377.464,21.517c0-0.479,0.32-0.798,0.799-0.798h22.281c0.48,0,0.799,0.318,0.799,0.798v6.149 c0,0.479-0.318,0.799-0.799,0.799h-14.055c-0.32,0-0.48,0.16-0.48,0.479v14.294c0,0.32,0.16,0.479,0.48,0.479h12.139 c0.479,0,0.797,0.319,0.797,0.799v6.149c0,0.479-0.318,0.799-0.797,0.799h-12.139c-0.32,0-0.48,0.16-0.48,0.479v14.854 c0,0.319,0.16,0.479,0.48,0.479h14.055c0.48,0,0.799,0.318,0.799,0.799v6.148c0,0.479-0.318,0.799-0.799,0.799h-22.281 c-0.479,0-0.799-0.319-0.799-0.799V21.517z"/>
  <path d="M426.101,75.023c-0.48,0-0.719-0.16-0.879-0.559l-6.629-21.643h-1.357h-2.715c-0.32,0-0.479,0.16-0.479,0.479v20.923 c0,0.479-0.32,0.799-0.799,0.799h-6.949c-0.479,0-0.797-0.319-0.797-0.799V21.517c0-0.479,0.318-0.798,0.797-0.798h10.941 c9.662,0,15.492,4.232,15.492,16.131c0,7.108-2.395,11.58-6.469,13.896l7.668,23.479c0.16,0.399,0,0.799-0.398,0.799H426.101z M424.183,36.85c0-6.389-2.076-8.385-6.867-8.385h-2.795c-0.32,0-0.479,0.16-0.479,0.479v15.812c0,0.32,0.158,0.479,0.479,0.479 h2.795C422.106,45.235,424.183,43.318,424.183,36.85z"/>
</svg>
