<?xml version="1.0" encoding="UTF-8" standalone="no"?>
<svg
   xmlns:dc="http://purl.org/dc/elements/1.1/"
   xmlns:cc="http://creativecommons.org/ns#"
   xmlns:rdf="http://www.w3.org/1999/02/22-rdf-syntax-ns#"
   xmlns:svg="http://www.w3.org/2000/svg"
   xmlns="http://www.w3.org/2000/svg"
   viewBox="0 0 580.77332 171.34666"
   height="171.34666"
   width="580.77332"
   xml:space="preserve"
   id="svg2"
   version="1.1"><metadata
     id="metadata8"><rdf:RDF><cc:Work
         rdf:about=""><dc:format>image/svg+xml</dc:format><dc:type
           rdf:resource="http://purl.org/dc/dcmitype/StillImage" /></cc:Work></rdf:RDF></metadata><defs
     id="defs6"><clipPath
       id="clipPath20"
       clipPathUnits="userSpaceOnUse"><path
         id="path18"
         d="M 0,0 H 4355.82 V 1285 H 0 Z" /></clipPath></defs><g
     transform="matrix(1.3333333,0,0,-1.3333333,0,171.34667)"
     id="g10"><g
       transform="scale(0.1)"
       id="g12"><g
         id="g14"><g
           clip-path="url(#clipPath20)"
           id="g16"><path
             id="path22"
             style="fill:#231f20;fill-opacity:1;fill-rule:nonzero;stroke:none"
             d="m 2231.46,485.891 c 7.29,-2.618 14.8,-4.551 22.6,-5.86 7.81,-1.308 20.02,-1.953 36.64,-1.953 18.73,0 35.08,3.262 49.12,9.746 14.02,6.485 25.96,15.196 35.86,26.114 9.86,10.917 17.26,23.515 22.21,37.792 4.94,14.297 7.4,28.985 7.4,44.043 0,14.055 -1.68,27.551 -5.06,40.559 -3.4,12.988 -8.71,24.551 -15.98,34.688 -7.28,10.117 -16.5,18.183 -27.69,24.16 -11.15,5.976 -24.53,8.965 -40.14,8.965 -28.05,0 -49.24,-7.149 -63.51,-21.426 -14.3,-14.317 -21.45,-33.926 -21.45,-58.867 z m -92,445.089 h 92 V 751.684 c 6.23,6.25 18.18,13.261 35.86,21.054 17.66,7.793 38.98,11.7 63.93,11.7 26.5,0 50,-4.961 70.54,-14.825 20.51,-9.863 38.05,-23.125 52.6,-39.746 14.55,-16.621 25.61,-36.387 33.14,-59.238 7.54,-22.871 11.29,-47.051 11.29,-72.512 0,-27.539 -4.8,-53.379 -14.41,-77.558 -9.63,-24.161 -23.38,-45.215 -41.31,-63.141 -17.93,-17.895 -39.63,-32.207 -65.1,-42.871 -25.47,-10.649 -58.88,-15.981 -90.58,-15.981 -31.59,0 -74.46,0 -147.96,12.481 V 930.98" /><path
             id="path24"
             style="fill:#231f20;fill-opacity:1;fill-rule:nonzero;stroke:none"
             d="m 3331.38,485.891 c 7.27,-2.618 14.81,-4.551 22.6,-5.86 7.81,-1.308 20,-1.953 36.64,-1.953 18.71,0 35.08,3.262 49.1,9.746 14.03,6.485 25.98,15.196 35.86,26.114 9.88,10.917 17.27,23.515 22.21,37.792 4.96,14.297 7.42,28.985 7.42,44.043 0,14.055 -1.68,27.551 -5.06,40.559 -3.4,12.988 -8.71,24.551 -15.99,34.688 -7.27,10.117 -16.49,18.183 -27.68,24.16 -11.15,5.976 -24.53,8.965 -40.14,8.965 -28.04,0 -49.24,-7.149 -63.51,-21.426 -14.32,-14.317 -21.45,-33.926 -21.45,-58.867 z m -91.99,445.089 h 91.99 V 751.684 c 6.23,6.25 18.19,13.261 35.86,21.054 17.66,7.793 38.99,11.7 63.91,11.7 26.5,0 50.02,-4.961 70.54,-14.825 20.53,-9.863 38.07,-23.125 52.62,-39.746 14.55,-16.621 25.61,-36.387 33.15,-59.238 7.52,-22.871 11.29,-47.051 11.29,-72.512 0,-27.539 -4.81,-53.379 -14.42,-77.558 -9.63,-24.161 -23.38,-45.215 -41.31,-63.141 -17.93,-17.895 -39.63,-32.207 -65.1,-42.871 -25.46,-10.649 -58.88,-15.981 -90.6,-15.981 -31.58,0 -74.43,0 -147.93,12.481 V 930.98" /><path
             id="path26"
             style="fill:#231f20;fill-opacity:1;fill-rule:nonzero;stroke:none"
             d="m 1650.73,930.98 h 98.21 V 619.945 c 0,-19.757 1.95,-37.55 5.84,-53.39 3.9,-15.86 10.27,-29.356 19.12,-40.528 8.82,-11.191 20.5,-19.765 35.06,-25.722 14.55,-5.996 32.48,-8.965 53.8,-8.965 21.29,0 39.22,2.969 53.77,8.965 14.55,5.957 26.25,14.531 35.08,25.722 8.85,11.172 15.2,24.668 19.1,40.528 3.91,15.84 5.84,33.633 5.84,53.39 V 930.98 h 98.24 V 602.805 c 0,-29.121 -4.68,-56.133 -14.06,-81.075 -9.33,-24.937 -23.12,-46.64 -41.31,-65.078 -18.18,-18.457 -40.41,-33.007 -66.64,-43.648 -26.25,-10.649 -56.27,-16 -90.02,-16 -33.8,0 -63.8,5.351 -90.05,16 -26.25,10.641 -48.46,25.191 -66.65,43.648 -18.2,18.438 -31.95,40.141 -41.3,65.078 -9.36,24.942 -14.03,51.954 -14.03,81.075 V 930.98" /><path
             id="path28"
             style="fill:#231f20;fill-opacity:1;fill-rule:nonzero;stroke:none"
             d="m 2548.73,776.645 h 91.97 V 411.047 h -91.97 z m 0,154.335 h 91.97 v -91.972 h -91.97 v 91.972" /><path
             id="path30"
             style="fill:#231f20;fill-opacity:1;fill-rule:nonzero;stroke:none"
             d="m 2705.39,411.047 h 91.9883 V 930.981 H 2705.39 Z" /><path
             id="path32"
             style="fill:#231f20;fill-opacity:1;fill-rule:nonzero;stroke:none"
             d="m 3086.62,576.301 c -9.34,0.508 -18.44,1.035 -27.27,1.562 -7.28,0.512 -14.94,0.899 -23.01,1.172 -8.06,0.258 -14.92,0.391 -20.64,0.391 -29.61,0 -50.41,-5.86 -62.37,-17.539 -11.95,-11.699 -17.92,-25.078 -17.92,-40.157 0,-15.585 5.56,-27.808 16.75,-36.64 11.17,-8.848 27.68,-13.242 49.5,-13.242 10.93,0 21.44,1.82 31.58,5.468 10.13,3.614 19.1,8.575 26.87,14.809 7.81,6.227 14.18,13.492 19.12,21.813 4.93,8.32 7.39,17.148 7.39,26.503 z m 0,-130.938 c -9.87,-11.972 -24.93,-22.613 -45.2,-31.988 -20.25,-9.34 -42.87,-14.027 -67.81,-14.027 -15.1,0 -30.02,2.343 -44.83,7.031 -14.82,4.668 -28.34,11.797 -40.52,21.445 -12.23,9.594 -22.09,21.934 -29.63,37.012 -7.54,15.059 -11.31,32.734 -11.31,53.008 0,20.785 3.89,39.355 11.7,55.722 7.79,16.368 18.69,30.137 32.73,41.321 14.05,11.172 30.9,19.609 50.67,25.332 19.74,5.722 41.56,8.574 65.49,8.574 7.26,0 15.31,-0.137 24.16,-0.391 8.82,-0.254 17.4,-0.644 25.72,-1.152 9.35,-0.547 18.96,-1.055 28.83,-1.562 v 8.574 c 0,18.183 -7.27,32.48 -21.8,42.871 -14.57,10.39 -33.54,15.586 -56.91,15.586 -26,0 -46.78,-3.379 -62.37,-10.137 -15.58,-6.758 -29.35,-14.023 -41.33,-21.816 l -42.07,62.343 c 7.25,5.196 15.57,10.547 24.93,15.996 9.35,5.45 20.27,10.372 32.75,14.805 12.48,4.414 26.89,8.047 43.24,10.918 16.39,2.832 35.49,4.277 57.31,4.277 23.39,0 44.57,-3.242 63.53,-9.746 18.97,-6.504 35.22,-15.586 48.73,-27.285 13.5,-11.679 23.89,-25.722 31.17,-42.09 7.29,-16.367 10.9,-34.16 10.9,-53.379 V 411.047 h -85.72 l -2.36,34.316" /><path
             id="path34"
             style="fill:#231f20;fill-opacity:1;fill-rule:nonzero;stroke:none"
             d="m 3677.14,515.504 c 11.43,-11.43 25.84,-20.918 43.27,-28.442 17.4,-7.558 37.26,-11.328 59.62,-11.328 19.75,0 35.59,2.602 47.54,7.813 11.96,5.176 17.93,13.75 17.93,25.723 0,5.175 -1.03,10 -3.12,14.414 -2.07,4.414 -6.49,8.695 -13.24,12.871 -6.76,4.14 -16.12,8.3 -28.07,12.461 -11.95,4.16 -28.05,8.574 -48.32,13.261 -12.48,3.125 -25.47,7.27 -38.99,12.461 -13.51,5.196 -26.11,12.348 -37.79,21.446 -11.7,9.082 -21.31,20.011 -28.85,32.726 -7.52,12.735 -11.29,27.949 -11.29,45.606 0,18.183 4.4,34.433 13.25,48.73 8.83,14.277 20.37,26.231 34.68,35.859 14.3,9.61 30.4,17.012 48.32,22.207 17.93,5.196 36,7.793 54.18,7.793 32.23,0 59.63,-3.378 82.23,-10.136 22.62,-6.758 43.01,-16.875 61.21,-30.41 l -47.56,-64.688 c -9.88,7.285 -22.87,13.906 -38.96,19.883 -16.11,5.976 -35.08,8.965 -56.92,8.965 -21.81,0 -37.03,-3.242 -45.6,-9.746 -8.58,-6.504 -12.87,-14.414 -12.87,-23.77 0,-11.445 7.15,-20.41 21.44,-26.894 14.3,-6.504 36.53,-13.379 66.64,-20.664 18.73,-4.161 35.47,-9.356 50.3,-15.586 14.8,-6.231 27.54,-14.036 38.18,-23.387 10.66,-9.36 18.85,-20.395 24.57,-33.125 5.7,-12.754 8.58,-27.953 8.58,-45.609 0,-17.676 -4.17,-33.653 -12.49,-47.93 -8.32,-14.297 -19.6,-26.367 -33.9,-36.25 -14.3,-9.879 -30.94,-17.539 -49.88,-22.988 -18.99,-5.469 -39.13,-8.204 -60.43,-8.204 -34.28,0 -65.2,4.825 -92.76,14.438 -27.54,9.605 -49.63,23.766 -66.27,42.476 l 55.37,60.024" /><path
             id="path36"
             style="fill:#231f20;fill-opacity:1;fill-rule:nonzero;stroke:none"
             d="m 1035.84,460.52 h -70.235 v 365.187 h 70.235 z m -140.457,0 h -70.207 v 365.187 h 70.207 z m -140.449,0 h -70.239 v 365.187 h 70.239 z m -323.039,-0.528 c -100.684,0 -182.579,81.895 -182.579,182.578 0,100.684 81.895,182.602 182.579,182.602 100.683,0 182.578,-81.918 182.578,-182.602 0,-100.683 -81.895,-182.578 -182.578,-182.578 z M 642.578,1285.15 C 287.688,1285.15 0,997.453 0,642.57 0,287.688 287.688,-0.0117188 642.578,-0.0117188 c 354.871,0 642.562,287.6997188 642.562,642.5817188 0,354.883 -287.691,642.58 -642.562,642.58" /><path
             id="path38"
             style="fill:#231f20;fill-opacity:1;fill-rule:nonzero;stroke:none"
             d="m 431.895,755.902 c -62.5,0 -113.321,-50.84 -113.321,-113.332 0,-62.48 50.821,-113.3 113.321,-113.3 62.48,0 113.332,50.82 113.332,113.3 0,62.492 -50.852,113.332 -113.332,113.332" /><path
             id="path40"
             style="fill:#231f20;fill-opacity:1;fill-rule:nonzero;stroke:none"
             d="m 1659.92,269.461 h 15.57 L 1744.98,150.84 1816,269.461 h 13.79 l 8.94,-199.8126 h -14.35 L 1817.48,247 1748.57,132.578 h -9.25 l -67.11,114.102 -6.88,-177.0316 h -14.37 l 8.96,199.8126" /><path
             id="path42"
             style="fill:#231f20;fill-opacity:1;fill-rule:nonzero;stroke:none"
             d="m 1972.95,143.891 c -4.18,1 -9.43,1.839 -15.74,2.519 -6.29,0.719 -14.32,1.051 -24.08,1.051 -10.22,0 -18.29,-1.231 -24.26,-3.711 -6,-2.539 -10.55,-5.621 -13.64,-9.289 -3.12,-3.711 -5.09,-7.723 -5.99,-12.02 -0.9,-4.269 -1.35,-8.121 -1.35,-11.519 0,-9.961 3.34,-17.2423 10.02,-21.8517 6.7,-4.5898 15.23,-6.8789 25.63,-6.8789 6.77,0 13.16,1.1875 19.16,3.5781 5.99,2.4024 11.23,5.5821 15.72,9.5899 4.51,3.9804 8.04,8.5316 10.64,13.6286 2.58,5.102 3.89,10.231 3.89,15.434 z m 1.21,-70.4105 c -0.21,1.8203 -0.33,3.8086 -0.33,6 -0.18,2.0078 -0.28,4.3906 -0.28,7.1797 0,2.8203 0,6.121 0,9.8906 -3.59,-5.1992 -7.53,-9.5313 -11.83,-13.0313 -4.3,-3.5 -8.79,-6.2304 -13.48,-8.2187 -4.69,-2.0196 -9.28,-3.4024 -13.79,-4.1992 -4.49,-0.8204 -8.63,-1.1914 -12.42,-1.1914 -5.8,0 -11.58,0.5781 -17.36,1.789 -5.82,1.1914 -11.02,3.3399 -15.59,6.4492 -4.61,3.0821 -8.34,7.2813 -11.23,12.5821 -2.91,5.289 -4.35,12.0075 -4.35,20.1915 0,6.617 1.11,12.848 3.3,18.726 2.18,5.903 5.68,11 10.49,15.282 4.78,4.289 10.97,7.672 18.57,10.191 7.58,2.481 16.78,3.731 27.54,3.731 8.4,0 15.9,-0.293 22.48,-0.903 6.58,-0.578 12.17,-1.289 16.78,-2.09 v 7.801 c 0,7.57 -0.9,13.86 -2.7,18.86 -1.8,5 -4.51,9.011 -8.08,12 -3.62,2.98 -7.99,5.07 -13.19,6.281 -5.19,1.199 -11.19,1.777 -17.97,1.777 -11.38,0 -20.43,-1.617 -27.11,-4.918 -6.7,-3.32 -11.83,-6.469 -15.43,-9.43 l -7.18,9.27 c 3.79,3.602 9.92,7.371 18.41,11.371 8.5,4 18.83,6 31,6 17.77,0 31.52,-3.812 41.19,-11.371 9.69,-7.602 14.53,-20.16 14.53,-37.75 v -63.5 c 0,-3.9805 0,-7.75 0,-11.2305 0,-3.5 0.1,-6.539 0.32,-9.1601 0.17,-3.1797 0.39,-5.961 0.58,-8.3789 h -12.87" /><path
             id="path44"
             style="fill:#231f20;fill-opacity:1;fill-rule:nonzero;stroke:none"
             d="m 2040.94,97.4414 c 1.4,-0.9922 3.3,-2.3398 5.68,-4.043 2.42,-1.6796 5.39,-3.3398 9.01,-4.9179 3.59,-1.6016 7.71,-3.0117 12.44,-4.1797 4.66,-1.2305 10,-1.8203 15.99,-1.8203 7.6,0 14.79,1.289 21.58,3.8906 6.78,2.5977 12.68,6.4101 17.68,11.3906 5,4.9763 8.93,11.1293 11.84,18.4183 2.89,7.281 4.33,15.699 4.33,25.308 0,7.992 -0.9,15.684 -2.69,23.063 -1.8,7.41 -4.65,13.871 -8.54,19.5 -3.88,5.558 -8.94,10 -15.12,13.301 -6.19,3.296 -13.78,4.937 -22.77,4.937 -5.98,0 -11.44,-0.898 -16.33,-2.699 -4.88,-1.789 -9.24,-4.231 -13.02,-7.34 -3.81,-3.09 -7.09,-6.68 -9.91,-10.781 -2.79,-4.098 -4.98,-8.34 -6.58,-12.719 -1.39,-3.609 -2.34,-7.891 -2.85,-12.891 -0.49,-4.98 -0.74,-10.078 -0.74,-15.269 z m -13.17,84.7886 c 0,3.79 0,7.051 0,9.731 0,2.711 0,5.09 0,7.18 0,2.109 -0.06,4.089 -0.15,6.019 -0.12,1.891 -0.26,3.93 -0.47,6.129 h 12.6 c 0.19,-2.199 0.35,-4.141 0.45,-5.859 0.09,-1.7 0.19,-3.43 0.29,-5.231 0.1,-1.801 0.19,-3.847 0.31,-6.148 0.1,-2.289 0.14,-5.039 0.14,-8.25 0.99,1.82 2.6,4.301 4.78,7.5 2.21,3.187 5.35,6.41 9.44,9.609 4.1,3.192 9.16,5.961 15.13,8.379 6,2.391 13.19,3.582 21.57,3.582 10.6,0 19.78,-1.902 27.55,-5.691 7.8,-3.789 14.26,-8.981 19.34,-15.559 5.08,-6.601 8.87,-14.34 11.37,-23.23 2.52,-8.879 3.75,-18.532 3.75,-28.903 0,-10.777 -1.74,-20.566 -5.24,-29.379 -3.49,-8.769 -8.4,-16.2887 -14.68,-22.5778 -6.29,-6.3007 -13.68,-11.1523 -22.17,-14.5507 -8.48,-3.3907 -17.7,-5.0703 -27.72,-5.0703 -9.76,0 -18.16,1.3398 -25.15,4.0586 -7,2.6718 -12.99,5.4101 -17.97,8.2226 V 13.6016 h -13.17 V 182.23" /><path
             id="path46"
             style="fill:#231f20;fill-opacity:1;fill-rule:nonzero;stroke:none"
             d="m 2241.32,211.289 h 13.5 v -76.398 c 0,-10.18 0.84,-18.68 2.54,-25.45 1.7,-6.8 4.24,-12.191 7.64,-16.191 3.37,-3.9883 7.57,-6.7812 12.57,-8.3789 5,-1.5899 10.78,-2.3906 17.39,-2.3906 8.57,0 16.05,1.8203 22.44,5.3789 6.4,3.6289 11.64,8.1992 15.76,13.7816 4.06,5.609 7.11,11.8 9.1,18.578 2.01,6.801 3.03,13.472 3.03,20.062 v 71.008 h 13.46 v -108.75 c 0,-3.9999 0,-7.2773 0,-9.8593 0,-2.6211 0,-4.9609 0,-7.0508 0,-2.1094 0.05,-4.0977 0.15,-6 0.1,-1.9101 0.26,-3.9375 0.45,-6.1484 h -12.58 c -0.21,2.2109 -0.37,4.1992 -0.47,6 -0.07,1.8086 -0.17,3.75 -0.27,5.8593 -0.1,2.0899 -0.14,4.4297 -0.14,7.0118 0,2.6093 0,5.9179 0,9.8984 -1.62,-3.0117 -3.82,-6.3906 -6.6,-10.1797 -2.81,-3.8008 -6.31,-7.3398 -10.51,-10.6406 -4.18,-3.2813 -9.21,-6.0391 -15.11,-8.2188 -5.9,-2.2109 -12.74,-3.3007 -20.53,-3.3007 -9.77,0 -17.95,1.3789 -24.53,4.1992 -6.62,2.7695 -11.95,6.8125 -16.06,12.1015 -4.1,5.3008 -6.97,11.6485 -8.67,19.0271 -1.7,7.403 -2.56,15.782 -2.56,25.172 v 80.879" /><path
             id="path48"
             style="fill:#231f20;fill-opacity:1;fill-rule:nonzero;stroke:none"
             d="m 2414.45,97.4414 c 1.42,-0.9922 3.32,-2.3398 5.7,-4.043 2.4,-1.6796 5.39,-3.3398 8.99,-4.9179 3.59,-1.6016 7.73,-3.0117 12.46,-4.1797 4.66,-1.2305 10,-1.8203 15.99,-1.8203 7.6,0 14.79,1.289 21.58,3.8906 6.78,2.5977 12.68,6.4101 17.68,11.3906 4.98,4.9763 8.93,11.1293 11.82,18.4183 2.89,7.281 4.35,15.699 4.35,25.308 0,7.992 -0.9,15.684 -2.69,23.063 -1.8,7.41 -4.67,13.871 -8.56,19.5 -3.88,5.558 -8.92,10 -15.11,13.301 -6.2,3.296 -13.77,4.937 -22.78,4.937 -5.97,0 -11.42,-0.898 -16.31,-2.699 -4.9,-1.789 -9.24,-4.231 -13.02,-7.34 -3.81,-3.09 -7.11,-6.68 -9.91,-10.781 -2.79,-4.098 -4.98,-8.34 -6.58,-12.719 -1.39,-3.609 -2.34,-7.891 -2.87,-12.891 -0.47,-4.98 -0.74,-10.078 -0.74,-15.269 z m -13.17,84.7886 c 0,3.79 0,7.051 0,9.731 0,2.711 0,5.09 0,7.18 0,2.109 -0.03,4.089 -0.13,6.019 -0.12,1.891 -0.26,3.93 -0.47,6.129 h 12.6 c 0.17,-2.199 0.35,-4.141 0.45,-5.859 0.09,-1.7 0.19,-3.43 0.29,-5.231 0.1,-1.801 0.19,-3.847 0.29,-6.148 0.1,-2.289 0.14,-5.039 0.14,-8.25 1.01,1.82 2.6,4.301 4.8,7.5 2.19,3.187 5.33,6.41 9.44,9.609 4.08,3.192 9.14,5.961 15.13,8.379 6,2.391 13.17,3.582 21.57,3.582 10.58,0 19.76,-1.902 27.55,-5.691 7.8,-3.789 14.24,-8.981 19.34,-15.559 5.08,-6.601 8.87,-14.34 11.37,-23.23 2.5,-8.879 3.75,-18.532 3.75,-28.903 0,-10.777 -1.76,-20.566 -5.26,-29.379 -3.47,-8.769 -8.38,-16.2887 -14.66,-22.5778 -6.31,-6.3007 -13.68,-11.1523 -22.17,-14.5507 -8.5,-3.3907 -17.72,-5.0703 -27.72,-5.0703 -9.78,0 -18.16,1.3398 -25.15,4.0586 -7,2.6718 -12.99,5.4101 -17.99,8.2226 V 13.6016 h -13.17 V 182.23" /><path
             id="path50"
             style="fill:#231f20;fill-opacity:1;fill-rule:nonzero;stroke:none"
             d="m 2608.86,28.8516 c 1.8,-1.7813 4.26,-3.3828 7.37,-4.7813 3.08,-1.3906 6.62,-2.0898 10.62,-2.0898 5.98,0 10.63,2.0898 13.91,6.289 3.3,4.1914 6.44,10.1914 9.45,17.961 l 11.39,29.0703 -61.43,135.9882 h 15.31 l 53.01,-119.5273 45.82,119.5273 h 14.67 l -67.7,-170.4492 c -1.17,-2.9804 -2.69,-6.289 -4.49,-9.8984 -1.79,-3.5703 -4.04,-6.9102 -6.74,-10 -2.69,-3.1016 -5.93,-5.7226 -9.72,-7.8125 -3.81,-2.0898 -8.28,-3.14843 -13.48,-3.14843 -5.8,0 -10.62,0.85933 -14.53,2.55863 -3.89,1.6797 -7.34,3.9297 -10.35,6.7421 l 6.89,9.5704" /><path
             id="path52"
             style="fill:#231f20;fill-opacity:1;fill-rule:nonzero;stroke:none"
             d="m 2812.55,82.1914 c 7.99,0 15.47,1.5781 22.46,4.7891 7.02,3.1797 13.03,7.4804 18.13,12.8906 5.1,5.3669 9.1,11.7189 11.99,18.9999 2.87,7.309 4.34,15.141 4.34,23.5 0,8 -1.49,15.617 -4.47,22.949 -3.01,7.258 -7.06,13.731 -12.15,19.289 -5.1,5.59 -11.14,10 -18.11,13.192 -6.99,3.199 -14.37,4.777 -22.19,4.777 -8.18,0 -15.72,-1.578 -22.59,-4.777 -6.9,-3.192 -12.89,-7.481 -17.99,-12.891 -5.1,-5.379 -9.1,-11.719 -11.97,-19.012 -2.9,-7.296 -4.34,-15.117 -4.34,-23.527 0,-8.191 1.48,-15.859 4.47,-23.051 3.01,-7.211 7.05,-13.57 12.15,-19.16 5.08,-5.6092 11.11,-9.9998 18.11,-13.1795 7.01,-3.211 14.39,-4.7891 22.16,-4.7891 z m 0,-12.2812 c -9.76,0 -18.96,1.8906 -27.54,5.6796 -8.59,3.7891 -16.15,8.9805 -22.61,15.5704 -6.51,6.6015 -11.6,14.2698 -15.3,23.0588 -3.69,8.812 -5.54,18.191 -5.54,28.152 0,10 1.85,19.391 5.54,28.18 3.7,8.789 8.79,16.469 15.3,23.07 6.46,6.578 14.02,11.77 22.61,15.559 8.58,3.789 17.78,5.691 27.54,5.691 9.81,0 18.97,-1.902 27.58,-5.691 8.58,-3.789 16.12,-8.981 22.58,-15.559 6.52,-6.601 11.62,-14.281 15.31,-23.07 3.69,-8.789 5.53,-18.18 5.53,-28.18 0,-9.961 -1.84,-19.34 -5.53,-28.152 -3.69,-8.789 -8.79,-16.4573 -15.31,-23.0588 -6.46,-6.5899 -14,-11.7813 -22.58,-15.5704 -8.61,-3.789 -17.77,-5.6796 -27.58,-5.6796" /><path
             id="path54"
             style="fill:#231f20;fill-opacity:1;fill-rule:nonzero;stroke:none"
             d="m 2916.79,211.289 h 13.48 v -76.398 c 0,-10.18 0.86,-18.68 2.56,-25.45 1.68,-6.8 4.25,-12.191 7.63,-16.191 3.4,-3.9883 7.58,-6.7812 12.58,-8.3789 5,-1.5899 10.8,-2.3906 17.38,-2.3906 8.58,0 16.06,1.8203 22.47,5.3789 6.4,3.6289 11.62,8.1992 15.72,13.7816 4.1,5.609 7.15,11.8 9.14,18.578 1.99,6.801 2.99,13.472 2.99,20.062 v 71.008 h 13.47 v -108.75 c 0,-3.9999 0,-7.2773 0,-9.8593 0,-2.6211 0,-4.9609 0,-7.0508 0,-2.1094 0.06,-4.0977 0.18,-6 0.1,-1.9101 0.23,-3.9375 0.43,-6.1484 h -12.56 c -0.21,2.2109 -0.39,4.1992 -0.49,6 -0.08,1.8086 -0.19,3.75 -0.29,5.8593 -0.08,2.0899 -0.14,4.4297 -0.14,7.0118 0,2.6093 0,5.9179 0,9.8984 -1.6,-3.0117 -3.81,-6.3906 -6.58,-10.1797 -2.79,-3.8008 -6.29,-7.3398 -10.49,-10.6406 -4.18,-3.2813 -9.24,-6.0391 -15.13,-8.2188 -5.9,-2.2109 -12.72,-3.3007 -20.53,-3.3007 -9.77,0 -17.97,1.3789 -24.55,4.1992 -6.6,2.7695 -11.94,6.8125 -16.04,12.1015 -4.08,5.3008 -6.99,11.6485 -8.69,19.0271 -1.7,7.403 -2.54,15.782 -2.54,25.172 v 80.879" /><path
             id="path56"
             style="fill:#231f20;fill-opacity:1;fill-rule:nonzero;stroke:none"
             d="m 3076.75,182.23 c 0,3.79 0,7.051 0,9.731 0,2.711 0,5.09 0,7.18 0,2.109 -0.04,4.089 -0.15,6.019 -0.1,1.891 -0.24,3.93 -0.43,6.129 h 12.58 c 0.19,-2.199 0.33,-4.309 0.42,-6.309 0.1,-1.968 0.2,-4.121 0.32,-6.441 0.09,-2.289 0.15,-4.828 0.15,-7.617 0,-2.813 0,-6.09 0,-9.883 1.61,3.012 3.73,6.332 6.45,10.02 2.67,3.691 6.13,7.152 10.33,10.332 4.18,3.199 9.08,5.898 14.67,8.109 5.58,2.18 12.07,3.281 19.49,3.281 4.38,0 8.17,-0.711 11.35,-2.09 l -3.87,-12.89 c -1.42,0.597 -3.05,1.008 -4.96,1.211 -1.89,0.187 -3.65,0.289 -5.23,0.289 -7.19,0 -13.7,-1.582 -19.5,-4.781 -5.76,-3.231 -10.76,-7.411 -14.94,-12.579 -4.22,-5.222 -7.44,-11.14 -9.76,-17.851 -2.29,-6.66 -3.44,-13.418 -3.44,-20.199 V 73.4805 h -13.48 V 182.23" /><path
             id="path58"
             style="fill:#231f20;fill-opacity:1;fill-rule:nonzero;stroke:none"
             d="m 3244.49,87.8594 c 2.4,-0.8086 6.56,-1.8985 12.44,-3.2891 5.9,-1.3984 14.04,-2.0898 24.41,-2.0898 8.79,0 16.92,1.25 24.4,3.7304 7.5,2.5 14.04,6.2305 19.63,11.2305 5.58,4.9996 9.92,11.2496 13.04,18.7386 3.07,7.48 4.63,16.23 4.63,26.191 0,8 -0.9,15.617 -2.69,22.949 -1.78,7.258 -4.65,13.61 -8.54,19 -3.89,5.391 -8.92,9.692 -15.12,12.871 -6.19,3.2 -13.78,4.809 -22.77,4.809 -8.38,0 -15.68,-1.801 -21.85,-5.379 -6.2,-3.609 -11.35,-8.101 -15.45,-13.492 -4.09,-5.41 -7.13,-11.328 -9.12,-17.809 -2.02,-6.511 -3.01,-12.66 -3.01,-18.422 z m -13.17,185.4216 h 13.48 v -86.562 c 1.78,2.992 4.02,6.14 6.74,9.441 2.69,3.281 6.03,6.32 10.04,9.141 3.98,2.789 8.73,5.09 14.2,6.89 5.52,1.778 12.05,2.68 19.63,2.68 10.58,0 19.76,-1.859 27.57,-5.551 7.78,-3.691 14.2,-8.769 19.32,-15.269 5.08,-6.492 8.89,-14.18 11.39,-23.051 2.5,-8.91 3.73,-18.539 3.73,-28.93 0,-11.558 -1.94,-21.851 -5.84,-30.82 -3.87,-9 -9.28,-16.5391 -16.16,-22.6094 -6.91,-6.1015 -15,-10.7695 -24.29,-13.9687 -9.28,-3.1836 -19.3,-4.7617 -30.12,-4.7617 -9.94,0 -19.37,0.8398 -28.28,2.5312 -8.89,1.6992 -16.02,3.75 -21.41,6.1406 v 194.699" /><path
             id="path60"
             style="fill:#231f20;fill-opacity:1;fill-rule:nonzero;stroke:none"
             d="m 3390.68,211.289 h 13.48 v -76.398 c 0,-10.18 0.85,-18.68 2.53,-25.45 1.7,-6.8 4.24,-12.191 7.66,-16.191 3.38,-3.9883 7.58,-6.7812 12.58,-8.3789 4.98,-1.5899 10.78,-2.3906 17.36,-2.3906 8.6,0 16.08,1.8203 22.46,5.3789 6.39,3.6289 11.64,8.1992 15.73,13.7816 4.1,5.609 7.14,11.8 9.14,18.578 1.99,6.801 3,13.472 3,20.062 v 71.008 h 13.48 v -108.75 c 0,-3.9999 0,-7.2773 0,-9.8593 0,-2.6211 0,-4.9609 0,-7.0508 0,-2.1094 0.04,-4.0977 0.16,-6 0.09,-1.9101 0.23,-3.9375 0.43,-6.1484 h -12.58 c -0.2,2.2109 -0.35,4.1992 -0.43,6 -0.1,1.8086 -0.2,3.75 -0.29,5.8593 -0.14,2.0899 -0.18,4.4297 -0.18,7.0118 0,2.6093 0,5.9179 0,9.8984 -1.6,-3.0117 -3.77,-6.3906 -6.58,-10.1797 -2.81,-3.8008 -6.29,-7.3398 -10.49,-10.6406 -4.2,-3.2813 -9.24,-6.0391 -15.1,-8.2188 -5.92,-2.2109 -12.77,-3.3007 -20.54,-3.3007 -9.79,0 -17.97,1.3789 -24.58,4.1992 -6.58,2.7695 -11.91,6.8125 -15.99,12.1015 -4.12,5.3008 -7.01,11.6485 -8.71,19.0271 -1.68,7.403 -2.54,15.782 -2.54,25.172 v 80.879" /><path
             id="path62"
             style="fill:#231f20;fill-opacity:1;fill-rule:nonzero;stroke:none"
             d="m 3550.33,100.449 c 5.8,-5.8201 12.44,-10.2498 19.92,-13.3396 7.5,-3.0977 16.33,-4.6289 26.5,-4.6289 5.59,0 10.88,0.5312 15.88,1.6289 5,1.1094 9.4,2.7109 13.19,4.8008 3.8,2.1093 6.77,4.7695 9,7.9492 2.19,3.1996 3.28,6.9686 3.28,11.3906 0,4.98 -1,9.082 -2.99,12.262 -2.01,3.179 -4.96,5.859 -8.85,7.949 -3.88,2.09 -8.78,3.91 -14.68,5.391 -5.86,1.507 -12.62,3.148 -20.22,4.937 -6.36,1.391 -12.22,3.051 -17.52,4.961 -5.29,1.879 -9.84,4.238 -13.61,7.031 -3.83,2.778 -6.82,6.328 -9,10.629 -2.19,4.301 -3.29,9.629 -3.29,16.02 0,6.191 1.37,11.64 4.18,16.34 2.82,4.671 6.55,8.621 11.23,11.82 4.69,3.18 10.1,5.57 16.18,7.031 6.09,1.5 12.44,2.25 19.04,2.25 10.78,0 20.31,-2 28.59,-6 8.28,-4 15.02,-9.062 20.24,-15.25 l -9.3,-8.383 c -4.8,5.172 -10.33,9.371 -16.62,12.563 -6.29,3.199 -13.85,4.777 -22.62,4.777 -4.39,0 -8.81,-0.328 -13.18,-1.047 -4.4,-0.672 -8.4,-2 -11.97,-3.871 -3.62,-1.89 -6.49,-4.512 -8.7,-7.789 -2.2,-3.301 -3.3,-7.641 -3.3,-13.031 0,-4.41 1.23,-8.09 3.75,-11.09 2.48,-2.988 5.73,-5.488 9.73,-7.469 4,-2.011 8.57,-3.672 13.79,-4.961 5.18,-1.289 10.37,-2.539 15.59,-3.75 5.58,-1.211 11.21,-2.672 16.91,-4.492 5.68,-1.808 10.88,-4.137 15.57,-7.047 4.68,-2.89 8.49,-6.562 11.38,-11.051 2.87,-4.539 4.34,-10.16 4.34,-16.96 0,-6.969 -1.6,-12.9692 -4.79,-17.9497 -3.2,-5.0195 -7.4,-9.1601 -12.59,-12.4414 -5.2,-3.3008 -11.06,-5.7187 -17.66,-7.3203 -6.6,-1.5977 -13.16,-2.3984 -19.77,-2.3984 -12.96,0 -24.02,1.8906 -33.12,5.6796 -9.06,3.7891 -16.8,8.8907 -23.2,15.2696 l 8.69,9.5896" /><path
             id="path64"
             style="fill:#231f20;fill-opacity:1;fill-rule:nonzero;stroke:none"
             d="m 3689.04,211.289 h 13.46 V 73.4805 h -13.46 z m -2.72,48.52 h 18.85 V 240.34 h -18.85 v 19.469" /><path
             id="path66"
             style="fill:#231f20;fill-opacity:1;fill-rule:nonzero;stroke:none"
             d="m 3745.05,182.23 c 0,3.79 0,7.051 0,9.731 0,2.711 0,5.09 0,7.18 0,2.109 -0.05,4.089 -0.15,6.019 -0.12,1.891 -0.28,3.93 -0.45,6.129 h 12.56 c 0.19,-2.199 0.35,-4.199 0.47,-5.988 0.09,-1.801 0.19,-3.77 0.29,-5.86 0.1,-2.089 0.15,-4.48 0.15,-7.191 0,-2.68 0,-5.922 0,-9.73 1.61,3.011 3.85,6.39 6.74,10.199 2.89,3.769 6.51,7.34 10.78,10.621 4.3,3.281 9.44,6.039 15.43,8.25 6,2.18 12.88,3.281 20.69,3.281 9.76,0 18.01,-1.391 24.69,-4.18 6.69,-2.82 12.12,-6.863 16.32,-12.152 4.2,-5.289 7.19,-11.68 8.99,-19.16 1.77,-7.481 2.67,-15.82 2.67,-25.02 V 73.4805 h -13.45 v 76.4105 c 0,10.168 -0.9,18.668 -2.7,25.449 -1.8,6.789 -4.45,12.18 -7.93,16.191 -3.49,3.957 -7.79,6.77 -12.87,8.379 -5.12,1.578 -10.96,2.379 -17.54,2.379 -8.79,0 -16.39,-1.801 -22.75,-5.367 -6.41,-3.621 -11.68,-8.211 -15.88,-13.793 -4.2,-5.609 -7.35,-11.801 -9.44,-18.578 -2.09,-6.789 -3.14,-13.469 -3.14,-20.051 V 73.4805 h -13.48 V 182.23" /><path
             id="path68"
             style="fill:#231f20;fill-opacity:1;fill-rule:nonzero;stroke:none"
             d="m 4015.21,150.469 c -1.8,16.972 -7.19,29.851 -16.15,38.64 -9.01,8.801 -20.69,13.18 -35.06,13.18 -7.38,0 -14.14,-1.328 -20.24,-4.039 -6.07,-2.68 -11.32,-6.391 -15.72,-11.078 -4.37,-4.692 -7.93,-10.172 -10.62,-16.461 -2.68,-6.289 -4.26,-13.051 -4.63,-20.242 z m 8.71,-56.3088 c -6,-7.5899 -14.14,-13.5313 -24.43,-17.8321 -10.3,-4.2969 -20.82,-6.4179 -31.58,-6.4179 -10.2,0 -19.63,1.75 -28.33,5.2304 -8.69,3.5 -16.11,8.4414 -22.32,14.8203 -6.19,6.3907 -11.03,14.0511 -14.51,22.9101 -3.48,8.91 -5.24,18.738 -5.24,29.5 0,10 1.66,19.391 4.93,28.18 3.3,8.789 7.83,16.469 13.63,23.07 5.78,6.578 12.77,11.77 20.98,15.559 8.18,3.789 17.14,5.691 26.95,5.691 9.39,0 18.1,-1.621 26.21,-4.941 8.09,-3.309 15.08,-8.129 20.96,-14.539 5.9,-6.379 10.49,-14.289 13.81,-23.782 3.28,-9.519 4.92,-20.429 4.92,-32.82 h -117.44 c 0.19,-7.769 1.71,-15.129 4.51,-22.008 2.79,-6.89 6.6,-12.89 11.38,-17.9724 4.79,-5.0977 10.53,-9.0781 17.23,-11.9883 6.7,-2.8906 14.12,-4.3398 22.33,-4.3398 4.19,0 8.51,0.4297 13,1.3476 4.51,0.9024 8.85,2.2539 13.05,4.0313 4.18,1.8125 8.01,3.9023 11.52,6.3008 3.5,2.3906 6.45,5.0781 8.83,8.0898 l 9.61,-8.0898" /><path
             id="path70"
             style="fill:#231f20;fill-opacity:1;fill-rule:nonzero;stroke:none"
             d="m 4064.64,100.449 c 5.8,-5.8201 12.44,-10.2498 19.93,-13.3396 7.48,-3.0977 16.32,-4.6289 26.52,-4.6289 5.58,0 10.88,0.5312 15.88,1.6289 4.96,1.1094 9.37,2.7109 13.16,4.8008 3.79,2.1093 6.8,4.7695 8.99,7.9492 2.2,3.1996 3.28,6.9686 3.28,11.3906 0,4.98 -0.98,9.082 -2.99,12.262 -1.99,3.179 -4.92,5.859 -8.83,7.949 -3.89,2.09 -8.81,3.91 -14.67,5.391 -5.9,1.507 -12.61,3.148 -20.23,4.937 -6.39,1.391 -12.25,3.051 -17.5,4.961 -5.31,1.879 -9.85,4.238 -13.65,7.031 -3.79,2.778 -6.78,6.328 -8.99,10.629 -2.19,4.301 -3.28,9.629 -3.28,16.02 0,6.191 1.41,11.64 4.18,16.34 2.79,4.671 6.56,8.621 11.23,11.82 4.71,3.18 10.1,5.57 16.19,7.031 6.1,1.5 12.42,2.25 19.01,2.25 10.8,0 20.33,-2 28.61,-6 8.3,-4 15.04,-9.062 20.23,-15.25 l -9.31,-8.383 c -4.77,5.172 -10.33,9.371 -16.6,12.563 -6.31,3.199 -13.83,4.777 -22.6,4.777 -4.42,0 -8.81,-0.328 -13.2,-1.047 -4.38,-0.672 -8.38,-2 -12,-3.871 -3.57,-1.89 -6.48,-4.512 -8.69,-7.789 -2.19,-3.301 -3.28,-7.641 -3.28,-13.031 0,-4.41 1.25,-8.09 3.73,-11.09 2.52,-2.988 5.76,-5.488 9.77,-7.469 3.98,-2.011 8.59,-3.672 13.77,-4.961 5.17,-1.289 10.37,-2.539 15.56,-3.75 5.59,-1.211 11.23,-2.672 16.94,-4.492 5.68,-1.808 10.87,-4.137 15.56,-7.047 4.71,-2.89 8.48,-6.562 11.37,-11.051 2.91,-4.539 4.35,-10.16 4.35,-16.96 0,-6.969 -1.58,-12.9692 -4.78,-17.9497 -3.18,-5.0195 -7.36,-9.1601 -12.56,-12.4414 -5.21,-3.3008 -11.11,-5.7187 -17.67,-7.3203 -6.61,-1.5977 -13.21,-2.3984 -19.79,-2.3984 -12.99,0 -24,1.8906 -33.09,5.6796 -9.1,3.7891 -16.83,8.8907 -23.22,15.2696 l 8.67,9.5896" /><path
             id="path72"
             style="fill:#231f20;fill-opacity:1;fill-rule:nonzero;stroke:none"
             d="m 4203.04,100.449 c 5.78,-5.8201 12.44,-10.2498 19.9,-13.3396 7.5,-3.0977 16.35,-4.6289 26.55,-4.6289 5.56,0 10.86,0.5312 15.86,1.6289 4.98,1.1094 9.39,2.7109 13.16,4.8008 3.79,2.1093 6.8,4.7695 8.99,7.9492 2.2,3.1996 3.3,6.9686 3.3,11.3906 0,4.98 -1,9.082 -2.99,12.262 -2.01,3.179 -4.94,5.859 -8.83,7.949 -3.91,2.09 -8.81,3.91 -14.67,5.391 -5.92,1.507 -12.64,3.148 -20.25,4.937 -6.39,1.391 -12.25,3.051 -17.5,4.961 -5.31,1.879 -9.85,4.238 -13.65,7.031 -3.77,2.778 -6.78,6.328 -8.97,10.629 -2.19,4.301 -3.3,9.629 -3.3,16.02 0,6.191 1.41,11.64 4.2,16.34 2.77,4.671 6.54,8.621 11.21,11.82 4.73,3.18 10.1,5.57 16.19,7.031 6.11,1.5 12.42,2.25 19.02,2.25 10.81,0 20.34,-2 28.62,-6 8.28,-4 15.02,-9.062 20.21,-15.25 l -9.29,-8.383 c -4.77,5.172 -10.34,9.371 -16.63,12.563 -6.28,3.199 -13.82,4.777 -22.59,4.777 -4.42,0 -8.81,-0.328 -13.19,-1.047 -4.39,-0.672 -8.39,-2 -11.99,-3.871 -3.59,-1.89 -6.48,-4.512 -8.69,-7.789 -2.19,-3.301 -3.3,-7.641 -3.3,-13.031 0,-4.41 1.27,-8.09 3.75,-11.09 2.5,-2.988 5.74,-5.488 9.75,-7.469 3.98,-2.011 8.57,-3.672 13.76,-4.961 5.22,-1.289 10.4,-2.539 15.59,-3.75 5.59,-1.211 11.23,-2.672 16.91,-4.492 5.71,-1.808 10.9,-4.137 15.57,-7.047 4.71,-2.89 8.5,-6.562 11.39,-11.051 2.89,-4.539 4.33,-10.16 4.33,-16.96 0,-6.969 -1.58,-12.9692 -4.76,-17.9497 -3.19,-5.0195 -7.38,-9.1601 -12.58,-12.4414 -5.2,-3.3008 -11.09,-5.7187 -17.68,-7.3203 -6.6,-1.5977 -13.18,-2.3984 -19.76,-2.3984 -13.01,0 -24.02,1.8906 -33.11,5.6796 -9.1,3.7891 -16.81,8.8907 -23.2,15.2696 l 8.67,9.5896" /><path
             id="path74"
             style="fill:#231f20;fill-opacity:1;fill-rule:nonzero;stroke:none"
             d="m 4335.44,72.8906 h 20.3789 V 93.8515 H 4335.44 Z" /></g></g></g></g></svg>